<svg width="173" height="46" viewBox="0 0 173 46" fill="none" xmlns="http://www.w3.org/2000/svg">
<g clip-path="url(#clip0_9_36)">
<path fill-rule="evenodd" clip-rule="evenodd" d="M23.6946 -7.03188C23.6155 -7.10838 23.5267 -7.16931 23.4322 -7.21459C23.2958 -7.27997 23.1478 -7.31252 23 -7.3125C22.749 -7.31246 22.4983 -7.21848 22.3054 -7.03188C20.2719 -5.08951 18.6803 -2.73213 17.6389 -0.119929C16.5968 2.49404 16.1301 5.30183 16.2704 8.11237C16.298 8.66397 16.7674 9.0888 17.319 9.06126C17.8706 9.03371 18.2955 8.56423 18.2679 8.01263C18.1419 5.489 18.561 2.96784 19.4967 0.620717C20.3112 -1.42216 21.5003 -3.29146 23 -4.89217C24.4997 -3.29146 25.6888 -1.42216 26.5033 0.620717C27.439 2.96784 27.8581 5.489 27.7321 8.01263C27.7045 8.56423 28.1294 9.03371 28.681 9.06126C29.2326 9.0888 29.702 8.66397 29.7296 8.11237C29.8699 5.30183 29.4032 2.49404 28.3611 -0.119929C27.3197 -2.73213 25.7281 -5.08951 23.6946 -7.03188Z" fill="url(#paint0_linear_9_36)"/>
<path fill-rule="evenodd" clip-rule="evenodd" d="M3.83331 9.0625C4.3856 9.0625 4.83331 9.51022 4.83331 10.0625C4.83331 14.8806 6.7473 19.5014 10.1542 22.9083C13.5611 26.3152 18.1819 28.2292 23 28.2292C27.8181 28.2292 32.4388 26.3152 35.8458 22.9083C39.2527 19.5014 41.1666 14.8806 41.1666 10.0625C41.1666 9.51022 41.6144 9.0625 42.1666 9.0625C42.7189 9.0625 43.1666 9.51022 43.1666 10.0625C43.1666 15.411 41.042 20.5405 37.26 24.3225C33.478 28.1045 28.3485 30.2292 23 30.2292C17.6514 30.2292 12.522 28.1045 8.73999 24.3225C4.95801 20.5405 2.83331 15.411 2.83331 10.0625C2.83331 9.51022 3.28103 9.0625 3.83331 9.0625Z" fill="url(#paint1_linear_9_36)"/>
<path fill-rule="evenodd" clip-rule="evenodd" d="M2.83331 31.2292C2.83331 30.677 3.28103 30.2292 3.83331 30.2292C6.48164 30.2292 9.10403 30.7509 11.5508 31.7643C13.9975 32.7778 16.2207 34.2633 18.0933 36.1359C19.9659 38.0086 21.4514 40.2317 22.4649 42.6785C22.6619 43.1541 22.8403 43.6364 23 44.1243C23.9764 41.1405 25.6452 38.3973 27.9067 36.1359C31.6886 32.3539 36.8181 30.2292 42.1666 30.2292C42.7189 30.2292 43.1666 30.677 43.1666 31.2292C43.1666 31.7815 42.7189 32.2292 42.1666 32.2292C37.3485 32.2292 32.7278 34.1432 29.3209 37.5501C25.914 40.9571 24 45.5778 24 50.3959C24 50.9482 23.5523 51.3959 23 51.3959C22.4477 51.3959 22 50.9482 22 50.3959C22 48.0102 21.5301 45.6479 20.6171 43.4438C19.7042 41.2397 18.366 39.2371 16.6791 37.5501C14.9922 35.8632 12.9895 34.5251 10.7854 33.6121C8.58131 32.6991 6.21899 32.2292 3.83331 32.2292C3.28103 32.2292 2.83331 31.7815 2.83331 31.2292Z" fill="url(#paint2_linear_9_36)"/>
</g>
<g filter="url(#filter0_d_9_36)">
<path d="M60.679 34.5H52.429V11.2273H60.7472C63.0881 11.2273 65.1032 11.6932 66.7926 12.625C68.482 13.5492 69.7813 14.8788 70.6903 16.6136C71.607 18.3485 72.0653 20.4242 72.0653 22.8409C72.0653 25.2652 71.607 27.3485 70.6903 29.0909C69.7813 30.8333 68.4744 32.1705 66.7699 33.1023C65.0729 34.0341 63.0426 34.5 60.679 34.5ZM57.3494 30.2841H60.4744C61.929 30.2841 63.1525 30.0265 64.1449 29.5114C65.1449 28.9886 65.8949 28.1818 66.3949 27.0909C66.9025 25.9924 67.1562 24.5758 67.1562 22.8409C67.1562 21.1212 66.9025 19.7159 66.3949 18.625C65.8949 17.5341 65.1487 16.7311 64.1562 16.2159C63.1638 15.7008 61.9403 15.4432 60.4858 15.4432H57.3494V30.2841ZM80.5966 34.8295C79.483 34.8295 78.4905 34.6364 77.6193 34.25C76.7481 33.8561 76.0587 33.2765 75.5511 32.5114C75.0511 31.7386 74.8011 30.7765 74.8011 29.625C74.8011 28.6553 74.9792 27.8409 75.3352 27.1818C75.6913 26.5227 76.1761 25.9924 76.7898 25.5909C77.4034 25.1894 78.1004 24.8864 78.8807 24.6818C79.6686 24.4773 80.4943 24.3333 81.358 24.25C82.3731 24.1439 83.1913 24.0455 83.8125 23.9545C84.4337 23.8561 84.8845 23.7121 85.1648 23.5227C85.4451 23.3333 85.5852 23.053 85.5852 22.6818V22.6136C85.5852 21.8939 85.358 21.3371 84.9034 20.9432C84.4564 20.5492 83.8201 20.3523 82.9943 20.3523C82.1231 20.3523 81.4299 20.5455 80.9148 20.9318C80.3996 21.3106 80.0587 21.7879 79.892 22.3636L75.4148 22C75.642 20.9394 76.089 20.0227 76.7557 19.25C77.4223 18.4697 78.2822 17.8712 79.3352 17.4545C80.3958 17.0303 81.6231 16.8182 83.017 16.8182C83.9867 16.8182 84.9148 16.9318 85.8011 17.1591C86.6951 17.3864 87.4867 17.7386 88.1761 18.2159C88.8731 18.6932 89.4223 19.3068 89.8239 20.0568C90.2254 20.7992 90.4261 21.6894 90.4261 22.7273V34.5H85.8352V32.0795H85.6989C85.4186 32.625 85.0436 33.1061 84.5739 33.5227C84.1042 33.9318 83.5398 34.2538 82.8807 34.4886C82.2216 34.7159 81.4602 34.8295 80.5966 34.8295ZM81.983 31.4886C82.6951 31.4886 83.3239 31.3485 83.8693 31.0682C84.4148 30.7803 84.8428 30.3939 85.1534 29.9091C85.464 29.4242 85.6193 28.875 85.6193 28.2614V26.4091C85.4678 26.5076 85.2595 26.5985 84.9943 26.6818C84.7367 26.7576 84.4451 26.8295 84.1193 26.8977C83.7936 26.9583 83.4678 27.0152 83.142 27.0682C82.8163 27.1136 82.5208 27.1553 82.2557 27.1932C81.6875 27.2765 81.1913 27.4091 80.767 27.5909C80.3428 27.7727 80.0133 28.0189 79.7784 28.3295C79.5436 28.6326 79.4261 29.0114 79.4261 29.4659C79.4261 30.125 79.6648 30.6288 80.142 30.9773C80.6269 31.3182 81.2405 31.4886 81.983 31.4886ZM105.375 27.0682V17.0455H110.216V34.5H105.568V31.3295H105.386C104.992 32.3523 104.337 33.1742 103.42 33.7955C102.511 34.4167 101.402 34.7273 100.091 34.7273C98.9242 34.7273 97.8977 34.4621 97.0114 33.9318C96.125 33.4015 95.4318 32.6477 94.9318 31.6705C94.4394 30.6932 94.1894 29.5227 94.1818 28.1591V17.0455H99.0227V27.2955C99.0303 28.3258 99.3068 29.1402 99.8523 29.7386C100.398 30.3371 101.129 30.6364 102.045 30.6364C102.629 30.6364 103.174 30.5038 103.682 30.2386C104.189 29.9659 104.598 29.5644 104.909 29.0341C105.227 28.5038 105.383 27.8485 105.375 27.0682ZM118.929 24.4091V34.5H114.088V17.0455H118.702V20.125H118.906C119.293 19.1098 119.94 18.3068 120.849 17.7159C121.759 17.1174 122.861 16.8182 124.156 16.8182C125.368 16.8182 126.425 17.0833 127.327 17.6136C128.228 18.1439 128.929 18.9015 129.429 19.8864C129.929 20.8636 130.179 22.0303 130.179 23.3864V34.5H125.338V24.25C125.346 23.1818 125.073 22.3485 124.52 21.75C123.967 21.1439 123.205 20.8409 122.236 20.8409C121.584 20.8409 121.009 20.9811 120.509 21.2614C120.016 21.5417 119.63 21.9508 119.349 22.4886C119.077 23.0189 118.937 23.6591 118.929 24.4091ZM138.381 29.4773L138.392 23.6705H139.097L144.688 17.0455H150.244L142.733 25.8182H141.585L138.381 29.4773ZM133.994 34.5V11.2273H138.835V34.5H133.994ZM144.903 34.5L139.767 26.8977L142.994 23.4773L150.574 34.5H144.903ZM163.812 27.0682V17.0455H168.653V34.5H164.006V31.3295H163.824C163.43 32.3523 162.775 33.1742 161.858 33.7955C160.949 34.4167 159.839 34.7273 158.528 34.7273C157.362 34.7273 156.335 34.4621 155.449 33.9318C154.563 33.4015 153.869 32.6477 153.369 31.6705C152.877 30.6932 152.627 29.5227 152.619 28.1591V17.0455H157.46V27.2955C157.468 28.3258 157.744 29.1402 158.29 29.7386C158.835 30.3371 159.566 30.6364 160.483 30.6364C161.066 30.6364 161.612 30.5038 162.119 30.2386C162.627 29.9659 163.036 29.5644 163.347 29.0341C163.665 28.5038 163.82 27.8485 163.812 27.0682Z" fill="white"/>
<path d="M52.429 34.5H51.429V35.5H52.429V34.5ZM52.429 11.2273V10.2273H51.429V11.2273H52.429ZM66.7926 12.625L66.3096 13.5006L66.3127 13.5023L66.7926 12.625ZM70.6903 16.6136L69.8046 17.0778L69.8062 17.0808L70.6903 16.6136ZM70.6903 29.0909L69.8053 28.6253L69.8038 28.6283L70.6903 29.0909ZM66.7699 33.1023L66.2902 32.2248L66.2886 32.2257L66.7699 33.1023ZM57.3494 30.2841H56.3494V31.2841H57.3494V30.2841ZM64.1449 29.5114L64.6056 30.3989L64.6081 30.3976L64.1449 29.5114ZM66.3949 27.0909L65.4871 26.6715L65.4858 26.6743L66.3949 27.0909ZM66.3949 18.625L65.4858 19.0417L65.4882 19.0469L66.3949 18.625ZM64.1562 16.2159L64.617 15.3284L64.1562 16.2159ZM57.3494 15.4432V14.4432H56.3494V15.4432H57.3494ZM60.679 33.5H52.429V35.5H60.679V33.5ZM53.429 34.5V11.2273H51.429V34.5H53.429ZM52.429 12.2273H60.7472V10.2273H52.429V12.2273ZM60.7472 12.2273C62.955 12.2273 64.7966 12.6661 66.3096 13.5006L67.2756 11.7494C65.4098 10.7203 63.2212 10.2273 60.7472 10.2273V12.2273ZM66.3127 13.5023C67.8259 14.3302 68.9854 15.5145 69.8046 17.0778L71.5761 16.1495C70.5771 14.2431 69.1381 12.7683 67.2726 11.7477L66.3127 13.5023ZM69.8062 17.0808C70.6311 18.6421 71.0653 20.5499 71.0653 22.8409H73.0653C73.0653 20.2986 72.5829 18.0549 71.5745 16.1465L69.8062 17.0808ZM71.0653 22.8409C71.0653 25.1399 70.631 27.056 69.8053 28.6253L71.5753 29.5565C72.5831 27.641 73.0653 25.3904 73.0653 22.8409H71.0653ZM69.8038 28.6283C68.9851 30.1974 67.8189 31.3891 66.2902 32.2248L67.2496 33.9797C69.13 32.9518 70.5774 31.4692 71.5769 29.5535L69.8038 28.6283ZM66.2886 32.2257C64.7683 33.0605 62.9112 33.5 60.679 33.5V35.5C63.174 35.5 65.3775 35.0077 67.2512 33.9788L66.2886 32.2257ZM57.3494 31.2841H60.4744V29.2841H57.3494V31.2841ZM60.4744 31.2841C62.0427 31.2841 63.4345 31.0068 64.6056 30.3989L63.6842 28.6238C62.8704 29.0462 61.8153 29.2841 60.4744 29.2841V31.2841ZM64.6081 30.3976C65.8177 29.7653 66.7178 28.7864 67.304 27.5076L65.4858 26.6743C65.072 27.5772 64.4721 28.2119 63.6816 28.6251L64.6081 30.3976ZM67.3027 27.5104C67.8914 26.2362 68.1562 24.6624 68.1562 22.8409H66.1562C66.1562 24.4891 65.9135 25.7487 65.4871 26.6715L67.3027 27.5104ZM68.1562 22.8409C68.1562 21.0335 67.8911 19.4703 67.3016 18.2031L65.4882 19.0469C65.9138 19.9615 66.1562 21.2089 66.1562 22.8409H68.1562ZM67.304 18.2083C66.7184 16.9307 65.822 15.9539 64.617 15.3284L63.6955 17.1035C64.4753 17.5082 65.0714 18.1374 65.4858 19.0417L67.304 18.2083ZM64.617 15.3284C63.4459 14.7205 62.0541 14.4432 60.4858 14.4432V16.4432C61.8266 16.4432 62.8818 16.681 63.6955 17.1035L64.617 15.3284ZM60.4858 14.4432H57.3494V16.4432H60.4858V14.4432ZM56.3494 15.4432V30.2841H58.3494V15.4432H56.3494ZM77.6193 34.25L77.2073 35.1612L77.2139 35.1641L77.6193 34.25ZM75.5511 32.5114L74.7115 33.0546L74.7178 33.0642L75.5511 32.5114ZM75.3352 27.1818L74.4554 26.7065L75.3352 27.1818ZM76.7898 25.5909L76.2422 24.7541L76.7898 25.5909ZM78.8807 24.6818L78.6294 23.7139L78.6271 23.7145L78.8807 24.6818ZM81.358 24.25L81.454 25.2454L81.4619 25.2446L81.358 24.25ZM83.8125 23.9545L83.9573 24.9441L83.9691 24.9422L83.8125 23.9545ZM85.1648 23.5227L84.6049 22.6941L85.1648 23.5227ZM84.9034 20.9432L84.2422 21.6934L84.2485 21.6989L84.9034 20.9432ZM80.9148 20.9318L81.5072 21.7375L81.5148 21.7318L80.9148 20.9318ZM79.892 22.3636L79.8111 23.3604L80.6254 23.4265L80.8526 22.6417L79.892 22.3636ZM75.4148 22L74.437 21.7905L74.1983 22.9045L75.3338 22.9967L75.4148 22ZM76.7557 19.25L77.5128 19.9032L77.516 19.8996L76.7557 19.25ZM79.3352 17.4545L79.7032 18.3844L79.7066 18.383L79.3352 17.4545ZM85.8011 17.1591L85.5528 18.1278L85.5547 18.1283L85.8011 17.1591ZM88.1761 18.2159L87.6069 19.0381L87.6111 19.041L88.1761 18.2159ZM89.8239 20.0568L88.9422 20.5288L88.9443 20.5325L89.8239 20.0568ZM90.4261 34.5V35.5H91.4261V34.5H90.4261ZM85.8352 34.5H84.8352V35.5H85.8352V34.5ZM85.8352 32.0795H86.8352V31.0795H85.8352V32.0795ZM85.6989 32.0795V31.0795H85.0884L84.8094 31.6225L85.6989 32.0795ZM84.5739 33.5227L85.2307 34.2768L85.2375 34.2708L84.5739 33.5227ZM82.8807 34.4886L83.2067 35.4341L83.2163 35.4306L82.8807 34.4886ZM83.8693 31.0682L84.3264 31.9577L84.3361 31.9526L83.8693 31.0682ZM85.1534 29.9091L84.3114 29.3697L85.1534 29.9091ZM85.6193 26.4091H86.6193V24.5664L85.0743 25.5706L85.6193 26.4091ZM84.9943 26.6818L85.2765 27.6412L85.2853 27.6386L85.2941 27.6358L84.9943 26.6818ZM84.1193 26.8977L84.3022 27.8809L84.3132 27.8788L84.3242 27.8765L84.1193 26.8977ZM83.142 27.0682L83.2802 28.0586L83.2915 28.057L83.3027 28.0552L83.142 27.0682ZM82.2557 27.1932L82.1143 26.2032L82.1106 26.2038L82.2557 27.1932ZM80.767 27.5909L81.161 28.5101L80.767 27.5909ZM79.7784 28.3295L80.5689 28.9422L80.5761 28.9327L79.7784 28.3295ZM80.142 30.9773L79.5524 31.7849L79.5596 31.7902L79.5669 31.7953L80.142 30.9773ZM80.5966 33.8295C79.5993 33.8295 78.7486 33.6569 78.0247 33.3359L77.2139 35.1641C78.2325 35.6159 79.3666 35.8295 80.5966 35.8295V33.8295ZM78.0313 33.3388C77.324 33.019 76.7837 32.5604 76.3845 31.9586L74.7178 33.0642C75.3338 33.9927 76.1722 34.6931 77.2073 35.1612L78.0313 33.3388ZM76.3907 31.9681C76.0189 31.3935 75.8011 30.6321 75.8011 29.625H73.8011C73.8011 30.9209 74.0834 32.0838 74.7116 33.0546L76.3907 31.9681ZM75.8011 29.625C75.8011 28.7738 75.9577 28.1335 76.215 27.6571L74.4554 26.7065C74.0006 27.5483 73.8011 28.5368 73.8011 29.625H75.8011ZM76.215 27.6571C76.4939 27.141 76.8658 26.7362 77.3373 26.4277L76.2422 24.7541C75.4864 25.2487 74.8887 25.9045 74.4554 26.7065L76.215 27.6571ZM77.3373 26.4277C77.8521 26.0909 78.448 25.829 79.1343 25.6491L78.6271 23.7145C77.7528 23.9437 76.9547 24.2879 76.2422 24.7541L77.3373 26.4277ZM79.132 25.6497C79.8657 25.4592 80.6393 25.324 81.454 25.2454L81.2619 23.2546C80.3493 23.3427 79.4714 23.4953 78.6294 23.7139L79.132 25.6497ZM81.4619 25.2446C82.4834 25.1379 83.3168 25.0377 83.9573 24.944L83.6677 22.9651C83.0658 23.0532 82.2628 23.15 81.254 23.2554L81.4619 25.2446ZM83.9691 24.9422C84.6314 24.8372 85.2591 24.6659 85.7246 24.3513L84.6049 22.6941C84.5098 22.7584 84.236 22.8749 83.6559 22.9669L83.9691 24.9422ZM85.7246 24.3513C86.3103 23.9556 86.5852 23.3471 86.5852 22.6818H84.5852C84.5852 22.7118 84.5824 22.7279 84.5813 22.7329C84.5804 22.7373 84.5808 22.7329 84.5857 22.7232C84.588 22.7187 84.5908 22.7138 84.5941 22.7089C84.5974 22.704 84.6007 22.6999 84.6036 22.6967C84.6098 22.6898 84.6118 22.6895 84.6049 22.6941L85.7246 24.3513ZM86.5852 22.6818V22.6136H84.5852V22.6818H86.5852ZM86.5852 22.6136C86.5852 21.6664 86.2752 20.8088 85.5583 20.1875L84.2485 21.6989C84.4407 21.8654 84.5852 22.1215 84.5852 22.6136H86.5852ZM85.5646 20.193C84.875 19.5852 83.9696 19.3523 82.9943 19.3523V21.3523C83.6706 21.3523 84.0378 21.5133 84.2422 21.6934L85.5646 20.193ZM82.9943 19.3523C81.9822 19.3523 81.055 19.5767 80.3148 20.1318L81.5148 21.7318C81.8049 21.5142 82.264 21.3523 82.9943 21.3523V19.3523ZM80.3224 20.1262C79.6424 20.6262 79.1636 21.2836 78.9315 22.0856L80.8526 22.6417C80.9538 22.2922 81.1568 21.9951 81.5072 21.7375L80.3224 20.1262ZM79.973 21.3669L75.4957 21.0033L75.3338 22.9967L79.8111 23.3604L79.973 21.3669ZM76.3926 22.2095C76.587 21.3024 76.9627 20.5409 77.5128 19.9032L75.9985 18.5968C75.2154 19.5045 74.6971 20.5764 74.437 21.7905L76.3926 22.2095ZM77.516 19.8996C78.066 19.2557 78.7858 18.7474 79.7032 18.3844L78.9673 16.5247C77.7786 16.9951 76.7787 17.6836 75.9954 18.6004L77.516 19.8996ZM79.7066 18.383C80.6262 18.0152 81.7231 17.8182 83.017 17.8182V15.8182C81.5231 15.8182 80.1655 16.0454 78.9638 16.5261L79.7066 18.383ZM83.017 17.8182C83.908 17.8182 84.7522 17.9225 85.5528 18.1278L86.0495 16.1904C85.0773 15.9411 84.0655 15.8182 83.017 15.8182V17.8182ZM85.5547 18.1283C86.3447 18.3291 87.0249 18.6351 87.6069 19.0381L88.7453 17.3937C87.9486 16.8421 87.0454 16.4436 86.0475 16.1899L85.5547 18.1283ZM87.6111 19.041C88.1748 19.427 88.6159 19.9191 88.9423 20.5288L90.7055 19.5848C90.2288 18.6945 89.5714 17.9594 88.7411 17.3908L87.6111 19.041ZM88.9443 20.5325C89.2506 21.0989 89.4261 21.8178 89.4261 22.7273H91.4261C91.4261 21.561 91.2002 20.4995 90.7035 19.5811L88.9443 20.5325ZM89.4261 22.7273V34.5H91.4261V22.7273H89.4261ZM90.4261 33.5H85.8352V35.5H90.4261V33.5ZM86.8352 34.5V32.0795H84.8352V34.5H86.8352ZM85.8352 31.0795H85.6989V33.0795H85.8352V31.0795ZM84.8094 31.6225C84.5871 32.0551 84.2896 32.4382 83.9102 32.7747L85.2375 34.2708C85.7976 33.774 86.25 33.1949 86.5883 32.5366L84.8094 31.6225ZM83.9171 32.7686C83.5527 33.086 83.1007 33.3486 82.545 33.5466L83.2163 35.4306C83.9788 35.1589 84.6557 34.7776 85.2306 34.2768L83.9171 32.7686ZM82.5547 33.5433C82.0221 33.7269 81.3747 33.8295 80.5966 33.8295V35.8295C81.5457 35.8295 82.4211 35.7049 83.2067 35.434L82.5547 33.5433ZM81.983 32.4886C82.8284 32.4886 83.6183 32.3215 84.3264 31.9576L83.4123 30.1788C83.0294 30.3755 82.5618 30.4886 81.983 30.4886V32.4886ZM84.3361 31.9526C85.0231 31.59 85.585 31.0892 85.9954 30.4485L84.3114 29.3697C84.1006 29.6987 83.8064 29.9706 83.4026 30.1838L84.3361 31.9526ZM85.9954 30.4485C86.4161 29.7919 86.6193 29.0531 86.6193 28.2614H84.6193C84.6193 28.6969 84.512 29.0565 84.3114 29.3697L85.9954 30.4485ZM86.6193 28.2614V26.4091H84.6193V28.2614H86.6193ZM85.0743 25.5706C85.0282 25.6007 84.9142 25.6588 84.6945 25.7278L85.2941 27.6358C85.6047 27.5382 85.9075 27.4145 86.1643 27.2475L85.0743 25.5706ZM84.7122 25.7225C84.4852 25.7892 84.2201 25.855 83.9145 25.9189L84.3242 27.8765C84.6701 27.8041 84.9882 27.726 85.2765 27.6412L84.7122 25.7225ZM83.9364 25.9146C83.618 25.9738 83.2997 26.0294 82.9814 26.0812L83.3027 28.0552C83.6359 28.0009 83.9691 27.9428 84.3022 27.8809L83.9364 25.9146ZM83.0038 26.0778C82.6772 26.1233 82.3807 26.1652 82.1143 26.2032L82.3971 28.1831C82.661 28.1454 82.9553 28.1039 83.2802 28.0586L83.0038 26.0778ZM82.1106 26.2038C81.4767 26.2967 80.8935 26.4488 80.3731 26.6718L81.161 28.5101C81.4891 28.3694 81.8983 28.2563 82.4008 28.1826L82.1106 26.2038ZM80.3731 26.6718C79.8188 26.9093 79.3383 27.2535 78.9807 27.7264L80.5761 28.9327C80.6882 28.7844 80.8668 28.6361 81.161 28.5101L80.3731 26.6718ZM78.988 27.717C78.5933 28.2263 78.4261 28.8323 78.4261 29.4659H80.4261C80.4261 29.1905 80.4938 29.0389 80.5688 28.9421L78.988 27.717ZM78.4261 29.4659C78.4261 30.4017 78.7847 31.2244 79.5524 31.7849L80.7317 30.1696C80.5448 30.0332 80.4261 29.8483 80.4261 29.4659H78.4261ZM79.5669 31.7953C80.2584 32.2816 81.087 32.4886 81.983 32.4886V30.4886C81.3941 30.4886 80.9954 30.3548 80.7172 30.1592L79.5669 31.7953ZM105.375 27.0682H104.375L104.375 27.0779L105.375 27.0682ZM105.375 17.0455V16.0455H104.375V17.0455H105.375ZM110.216 17.0455H111.216V16.0455H110.216V17.0455ZM110.216 34.5V35.5H111.216V34.5H110.216ZM105.568 34.5H104.568V35.5H105.568V34.5ZM105.568 31.3295H106.568V30.3295H105.568V31.3295ZM105.386 31.3295V30.3295H104.7L104.453 30.9701L105.386 31.3295ZM103.42 33.7955L102.859 32.9676L102.856 32.9698L103.42 33.7955ZM97.0114 33.9318L97.5248 33.0737L97.0114 33.9318ZM94.9318 31.6705L94.0388 32.1204L94.0416 32.1259L94.9318 31.6705ZM94.1818 28.1591H93.1818L93.1818 28.1646L94.1818 28.1591ZM94.1818 17.0455V16.0455H93.1818V17.0455H94.1818ZM99.0227 17.0455H100.023V16.0455H99.0227V17.0455ZM99.0227 27.2955H98.0227L98.0228 27.3028L99.0227 27.2955ZM99.8523 29.7386L100.591 29.065L99.8523 29.7386ZM103.682 30.2386L104.145 31.125L104.155 31.1195L103.682 30.2386ZM104.909 29.0341L104.052 28.5196L104.046 28.5287L104.909 29.0341ZM106.375 27.0682V17.0455H104.375V27.0682H106.375ZM105.375 18.0455H110.216V16.0455H105.375V18.0455ZM109.216 17.0455V34.5H111.216V17.0455H109.216ZM110.216 33.5H105.568V35.5H110.216V33.5ZM106.568 34.5V31.3295H104.568V34.5H106.568ZM105.568 30.3295H105.386V32.3295H105.568V30.3295ZM104.453 30.9701C104.133 31.8003 103.609 32.4596 102.859 32.9676L103.981 34.6233C105.065 33.8888 105.851 32.9043 106.32 31.689L104.453 30.9701ZM102.856 32.9698C102.143 33.4572 101.239 33.7273 100.091 33.7273V35.7273C101.564 35.7273 102.88 35.3761 103.985 34.6211L102.856 32.9698ZM100.091 33.7273C99.0811 33.7273 98.2366 33.4996 97.5248 33.0737L96.4979 34.79C97.5588 35.4247 98.7674 35.7273 100.091 35.7273V33.7273ZM97.5248 33.0737C96.8095 32.6457 96.2423 32.0363 95.8221 31.215L94.0416 32.1259C94.6214 33.2591 95.4405 34.1573 96.4979 34.79L97.5248 33.0737ZM95.8249 31.2205C95.4169 30.4108 95.1887 29.3999 95.1818 28.1535L93.1818 28.1646C93.1901 29.6455 93.4619 30.9755 94.0388 32.1204L95.8249 31.2205ZM95.1818 28.1591V17.0455H93.1818V28.1591H95.1818ZM94.1818 18.0455H99.0227V16.0455H94.1818V18.0455ZM98.0227 17.0455V27.2955H100.023V17.0455H98.0227ZM98.0228 27.3028C98.0316 28.5103 98.3601 29.5859 99.1132 30.4122L100.591 29.065C100.254 28.6944 100.029 28.1412 100.023 27.2881L98.0228 27.3028ZM99.1132 30.4122C99.8741 31.2472 100.889 31.6364 102.045 31.6364V29.6364C101.369 29.6364 100.921 29.4271 100.591 29.065L99.1132 30.4122ZM102.045 31.6364C102.787 31.6364 103.492 31.4662 104.145 31.125L103.219 29.3523C102.857 29.5413 102.471 29.6364 102.045 29.6364V31.6364ZM104.155 31.1195C104.835 30.754 105.375 30.2174 105.772 29.5395L104.046 28.5287C103.822 28.9114 103.543 29.1778 103.209 29.3577L104.155 31.1195ZM105.767 29.5486C106.202 28.8235 106.384 27.9755 106.375 27.0585L104.375 27.0779C104.381 27.7215 104.253 28.1841 104.052 28.5196L105.767 29.5486ZM118.929 24.4091L117.929 24.399V24.4091H118.929ZM118.929 34.5V35.5H119.929V34.5H118.929ZM114.088 34.5H113.088V35.5H114.088V34.5ZM114.088 17.0455V16.0455H113.088V17.0455H114.088ZM118.702 17.0455H119.702V16.0455H118.702V17.0455ZM118.702 20.125H117.702V21.125H118.702V20.125ZM118.906 20.125V21.125H119.596L119.841 20.4807L118.906 20.125ZM120.849 17.7159L121.394 18.5544L121.399 18.5512L120.849 17.7159ZM127.327 17.6136L127.834 16.7517L127.327 17.6136ZM129.429 19.8864L128.537 20.3391L128.539 20.3418L129.429 19.8864ZM130.179 34.5V35.5H131.179V34.5H130.179ZM125.338 34.5H124.338V35.5H125.338V34.5ZM125.338 24.25L124.338 24.2429V24.25H125.338ZM124.52 21.75L123.781 22.4241L123.785 22.4287L124.52 21.75ZM120.509 21.2614L120.02 20.3891L120.014 20.3923L120.509 21.2614ZM119.349 22.4886L118.463 22.0265L118.46 22.0313L119.349 22.4886ZM117.929 24.4091V34.5H119.929V24.4091H117.929ZM118.929 33.5H114.088V35.5H118.929V33.5ZM115.088 34.5V17.0455H113.088V34.5H115.088ZM114.088 18.0455H118.702V16.0455H114.088V18.0455ZM117.702 17.0455V20.125H119.702V17.0455H117.702ZM118.702 21.125H118.906V19.125H118.702V21.125ZM119.841 20.4807C120.152 19.6633 120.663 19.0295 121.394 18.5544L120.304 16.8775C119.217 17.5841 118.433 18.5564 117.972 19.7693L119.841 20.4807ZM121.399 18.5512C122.116 18.0792 123.018 17.8182 124.156 17.8182V15.8182C122.703 15.8182 121.401 16.1557 120.3 16.8807L121.399 18.5512ZM124.156 17.8182C125.219 17.8182 126.095 18.0492 126.82 18.4756L127.834 16.7517C126.756 16.1175 125.518 15.8182 124.156 15.8182V17.8182ZM126.82 18.4756C127.547 18.9035 128.119 19.5146 128.537 20.3391L130.321 19.4337C129.739 18.2885 128.909 17.3844 127.834 16.7517L126.82 18.4756ZM128.539 20.3418C128.952 21.1488 129.179 22.1521 129.179 23.3864H131.179C131.179 21.9085 130.906 20.5785 130.319 19.4309L128.539 20.3418ZM129.179 23.3864V34.5H131.179V23.3864H129.179ZM130.179 33.5H125.338V35.5H130.179V33.5ZM126.338 34.5V24.25H124.338V34.5H126.338ZM126.338 24.2571C126.347 23.0162 126.028 21.9086 125.254 21.0713L123.785 22.4287C124.118 22.7884 124.344 23.3475 124.338 24.2429L126.338 24.2571ZM125.259 21.0759C124.481 20.2243 123.431 19.8409 122.236 19.8409V21.8409C122.98 21.8409 123.452 22.0636 123.781 22.4241L125.259 21.0759ZM122.236 19.8409C121.437 19.8409 120.688 20.0141 120.02 20.3891L120.998 22.1336C121.329 21.948 121.732 21.8409 122.236 21.8409V19.8409ZM120.014 20.3923C119.342 20.7745 118.825 21.3307 118.463 22.0265L120.236 22.9508C120.434 22.5709 120.69 22.3088 121.003 22.1304L120.014 20.3923ZM118.46 22.0313C118.1 22.7311 117.938 23.5325 117.929 24.399L119.929 24.4192C119.935 23.7857 120.053 23.3068 120.239 22.946L118.46 22.0313ZM138.381 29.4773L137.381 29.4753L137.375 32.1429L139.133 30.1361L138.381 29.4773ZM138.392 23.6705V22.6705H137.394L137.392 23.6685L138.392 23.6705ZM139.097 23.6705V24.6705H139.561L139.861 24.3154L139.097 23.6705ZM144.688 17.0455V16.0455H144.223L143.923 16.4005L144.688 17.0455ZM150.244 17.0455L151.004 17.6958L152.417 16.0455H150.244V17.0455ZM142.733 25.8182V26.8182H143.193L143.493 26.4686L142.733 25.8182ZM141.585 25.8182V24.8182H141.132L140.833 25.1593L141.585 25.8182ZM133.994 34.5H132.994V35.5H133.994V34.5ZM133.994 11.2273V10.2273H132.994V11.2273H133.994ZM138.835 11.2273H139.835V10.2273H138.835V11.2273ZM138.835 34.5V35.5H139.835V34.5H138.835ZM144.903 34.5L144.075 35.0598L144.372 35.5H144.903V34.5ZM139.767 26.8977L139.04 26.2115L138.49 26.794L138.938 27.4576L139.767 26.8977ZM142.994 23.4773L143.818 22.9107L143.117 21.8904L142.267 22.791L142.994 23.4773ZM150.574 34.5V35.5H152.475L151.398 33.9334L150.574 34.5ZM139.381 29.4792L139.392 23.6724L137.392 23.6685L137.381 29.4753L139.381 29.4792ZM138.392 24.6705H139.097V22.6705H138.392V24.6705ZM139.861 24.3154L145.452 17.6904L143.923 16.4005L138.332 23.0255L139.861 24.3154ZM144.688 18.0455H150.244V16.0455H144.688V18.0455ZM149.485 16.3951L141.973 25.1678L143.493 26.4686L151.004 17.6958L149.485 16.3951ZM142.733 24.8182H141.585V26.8182H142.733V24.8182ZM140.833 25.1593L137.628 28.8184L139.133 30.1361L142.338 26.477L140.833 25.1593ZM134.994 34.5V11.2273H132.994V34.5H134.994ZM133.994 12.2273H138.835V10.2273H133.994V12.2273ZM137.835 11.2273V34.5H139.835V11.2273H137.835ZM138.835 33.5H133.994V35.5H138.835V33.5ZM145.732 33.9402L140.596 26.3379L138.938 27.4576L144.075 35.0598L145.732 33.9402ZM140.494 27.584L143.722 24.1635L142.267 22.791L139.04 26.2115L140.494 27.584ZM142.17 24.0439L149.75 35.0666L151.398 33.9334L143.818 22.9107L142.17 24.0439ZM150.574 33.5H144.903V35.5H150.574V33.5ZM163.812 27.0682H162.812L162.813 27.0779L163.812 27.0682ZM163.812 17.0455V16.0455H162.812V17.0455H163.812ZM168.653 17.0455H169.653V16.0455H168.653V17.0455ZM168.653 34.5V35.5H169.653V34.5H168.653ZM164.006 34.5H163.006V35.5H164.006V34.5ZM164.006 31.3295H165.006V30.3295H164.006V31.3295ZM163.824 31.3295V30.3295H163.137L162.891 30.9701L163.824 31.3295ZM161.858 33.7955L161.297 32.9676L161.294 32.9698L161.858 33.7955ZM155.449 33.9318L155.962 33.0737L155.449 33.9318ZM153.369 31.6705L152.476 32.1204L152.479 32.1259L153.369 31.6705ZM152.619 28.1591H151.619L151.619 28.1646L152.619 28.1591ZM152.619 17.0455V16.0455H151.619V17.0455H152.619ZM157.46 17.0455H158.46V16.0455H157.46V17.0455ZM157.46 27.2955H156.46L156.46 27.3028L157.46 27.2955ZM158.29 29.7386L159.029 29.065H159.029L158.29 29.7386ZM162.119 30.2386L162.582 31.125L162.593 31.1195L162.119 30.2386ZM163.347 29.0341L162.489 28.5196L162.484 28.5287L163.347 29.0341ZM164.812 27.0682V17.0455H162.812V27.0682H164.812ZM163.812 18.0455H168.653V16.0455H163.812V18.0455ZM167.653 17.0455V34.5H169.653V17.0455H167.653ZM168.653 33.5H164.006V35.5H168.653V33.5ZM165.006 34.5V31.3295H163.006V34.5H165.006ZM164.006 30.3295H163.824V32.3295H164.006V30.3295ZM162.891 30.9701C162.571 31.8003 162.047 32.4596 161.297 32.9676L162.419 34.6233C163.503 33.8888 164.289 32.9043 164.757 31.689L162.891 30.9701ZM161.294 32.9698C160.58 33.4572 159.677 33.7273 158.528 33.7273V35.7273C160.001 35.7273 161.317 35.3761 162.422 34.6211L161.294 32.9698ZM158.528 33.7273C157.519 33.7273 156.674 33.4996 155.962 33.0737L154.935 34.79C155.996 35.4247 157.205 35.7273 158.528 35.7273V33.7273ZM155.962 33.0737C155.247 32.6457 154.68 32.0363 154.26 31.215L152.479 32.1259C153.059 33.2591 153.878 34.1573 154.935 34.79L155.962 33.0737ZM154.262 31.2205C153.854 30.4108 153.626 29.3999 153.619 28.1535L151.619 28.1646C151.628 29.6455 151.899 30.9755 152.476 32.1204L154.262 31.2205ZM153.619 28.1591V17.0455H151.619V28.1591H153.619ZM152.619 18.0455H157.46V16.0455H152.619V18.0455ZM156.46 17.0455V27.2955H158.46V17.0455H156.46ZM156.46 27.3028C156.469 28.5103 156.798 29.5859 157.551 30.4122L159.029 29.065C158.691 28.6944 158.466 28.1412 158.46 27.2881L156.46 27.3028ZM157.551 30.4122C158.312 31.2472 159.326 31.6364 160.483 31.6364V29.6364C159.807 29.6364 159.359 29.4271 159.029 29.065L157.551 30.4122ZM160.483 31.6364C161.224 31.6364 161.929 31.4662 162.582 31.125L161.656 29.3523C161.294 29.5413 160.908 29.6364 160.483 29.6364V31.6364ZM162.593 31.1195C163.273 30.754 163.812 30.2174 164.209 29.5395L162.484 28.5287C162.26 28.9114 161.981 29.1778 161.646 29.3577L162.593 31.1195ZM164.204 29.5486C164.639 28.8235 164.821 27.9755 164.812 27.0585L162.813 27.0779C162.819 27.7215 162.69 28.1841 162.489 28.5196L164.204 29.5486Z" fill="black"/>
</g>
<defs>
<filter id="filter0_d_9_36" x="48.429" y="11.2273" width="124.224" height="31.6023" filterUnits="userSpaceOnUse" color-interpolation-filters="sRGB">
<feFlood flood-opacity="0" result="BackgroundImageFix"/>
<feColorMatrix in="SourceAlpha" type="matrix" values="0 0 0 0 0 0 0 0 0 0 0 0 0 0 0 0 0 0 127 0" result="hardAlpha"/>
<feOffset dy="4"/>
<feGaussianBlur stdDeviation="2"/>
<feComposite in2="hardAlpha" operator="out"/>
<feColorMatrix type="matrix" values="0 0 0 0 0 0 0 0 0 0 0 0 0 0 0 0 0 0 0.25 0"/>
<feBlend mode="normal" in2="BackgroundImageFix" result="effect1_dropShadow_9_36"/>
<feBlend mode="normal" in="SourceGraphic" in2="effect1_dropShadow_9_36" result="shape"/>
</filter>
<linearGradient id="paint0_linear_9_36" x1="16.246" y1="0.875012" x2="29.754" y2="0.875012" gradientUnits="userSpaceOnUse">
<stop stop-color="#2AF598"/>
<stop offset="1" stop-color="#009EFD"/>
</linearGradient>
<linearGradient id="paint1_linear_9_36" x1="2.83331" y1="19.6458" x2="43.1666" y2="19.6458" gradientUnits="userSpaceOnUse">
<stop stop-color="#2AF598"/>
<stop offset="1" stop-color="#009EFD"/>
</linearGradient>
<linearGradient id="paint2_linear_9_36" x1="2.83331" y1="40.8126" x2="43.1666" y2="40.8126" gradientUnits="userSpaceOnUse">
<stop stop-color="#2AF598"/>
<stop offset="1" stop-color="#009EFD"/>
</linearGradient>
<clipPath id="clip0_9_36">
<rect width="46" height="46" fill="white"/>
</clipPath>
</defs>
</svg>
